<svg id="レイヤー_1" data-name="レイヤー 1" xmlns="http://www.w3.org/2000/svg" xmlns:xlink="http://www.w3.org/1999/xlink" viewBox="0 0 484.51 289.62"><defs><linearGradient id="名称未設定グラデーション_437" x1="236.08" y1="186.41" x2="236.08" y2="4.07" gradientUnits="userSpaceOnUse"><stop offset="0" stop-color="#fff"/><stop offset="0.22" stop-color="#fff655"/><stop offset="0.25" stop-color="#ffec54"/><stop offset="0.39" stop-color="#febc4d"/><stop offset="0.52" stop-color="#fd9a48"/><stop offset="0.63" stop-color="#fc8545"/><stop offset="0.7" stop-color="#fc7d44"/><stop offset="0.81" stop-color="#fc7f44"/><stop offset="0.86" stop-color="#fc8745"/><stop offset="0.89" stop-color="#fd9447"/><stop offset="0.93" stop-color="#fda64a"/><stop offset="0.96" stop-color="#febe4d"/><stop offset="0.98" stop-color="#fedb51"/><stop offset="1" stop-color="#fff655"/></linearGradient></defs><text transform="translate(5.5 208.98)" style="font-size:227.2884521484375px;fill:#f15a24;font-family:Impact"><tspan style="letter-spacing:-0.01200034157792891em">N</tspan><tspan x="120.35" y="0">i</tspan><tspan x="182.61" y="0" style="letter-spacing:0.020000569296548185em">c</tspan><tspan x="299.58" y="0" style="letter-spacing:-0.016000455437238548em">e</tspan><tspan x="412.14" y="0">!</tspan></text><path d="M110.36,4.07V183.75h-41L45.1,102.07v81.68H6V4.07H45.1L71.29,85V4.07Z" transform="translate(8.79 25.23)" style="fill:url(#名称未設定グラデーション_437)"/><path d="M171.22,4.07V27.49H125.05V4.07Zm0,32.41V183.75H125.05V36.48Z" transform="translate(8.79 25.23)" style="fill:url(#名称未設定グラデーション_437)"/><path d="M286.42,92.08H244.13v-17q0-8.88-1.44-12a5.33,5.33,0,0,0-5.32-3.17c-2.6,0-4.33.93-5.22,2.78s-1.33,6-1.33,12.43v69.47q0,7.89,2,11.82t5.88,3.94a6.07,6.07,0,0,0,6.16-4.11q1.6-4.09,1.61-15.53V123.15h40q-.12,17.65-1.28,26.47t-7.43,18.09a39.77,39.77,0,0,1-16.37,14q-10.11,4.71-25,4.71-19,0-30.08-6.49a35.73,35.73,0,0,1-15.7-18.2Q186,150,186,128.48V86.64q0-18.75,3.77-28.3t16.1-17q12.32-7.48,30-7.49t30,7.44Q278.2,48.69,282.31,60T286.42,92.08Z" transform="translate(8.79 25.23)" style="fill:url(#名称未設定グラデーション_437)"/><path d="M405.83,112.72h-58v31.85q0,10,1.44,12.88t5.55,2.88c3.4,0,5.68-1.28,6.82-3.83s1.72-7.49,1.72-14.81V122.26h42.51v10.88q0,13.65-1.72,21t-8.05,15.64a39.1,39.1,0,0,1-16,12.49q-9.72,4.16-24.36,4.16a71,71,0,0,1-25.09-4.1Q319.71,178.2,313.66,171a40.64,40.64,0,0,1-8.38-15.76q-2.32-8.59-2.33-25V87.31q0-19.32,5.22-30.47a35.8,35.8,0,0,1,17.09-17.09q11.87-5.94,27.3-5.94,18.87,0,31.13,7.16t17.2,19q4.94,11.82,4.94,33.24Zm-44.95-24V78q0-11.43-1.22-14.76a4.82,4.82,0,0,0-5-3.33c-3.11,0-5,1-5.77,2.83s-1.11,7-1.11,15.26V88.75Z" transform="translate(8.79 25.23)" style="fill:url(#名称未設定グラデーション_437)"/><path d="M466.12,4.07l-7.33,135.29H424.17L416.84,4.07Zm-3.66,143.72v36h-42v-36Z" transform="translate(8.79 25.23)" style="fill:url(#名称未設定グラデーション_437)"/><text transform="translate(5.5 208.98)" style="font-size:227.2884521484375px;fill:none;stroke:#000;stroke-miterlimit:10;stroke-width:11px;font-family:Impact"><tspan style="letter-spacing:-0.01200034157792891em">N</tspan><tspan x="120.35" y="0">i</tspan><tspan x="182.61" y="0" style="letter-spacing:0.020000569296548185em">c</tspan><tspan x="299.58" y="0" style="letter-spacing:-0.016000455437238548em">e</tspan><tspan x="412.14" y="0">!</tspan></text></svg>