<svg id="レイヤー_1" data-name="レイヤー 1" xmlns="http://www.w3.org/2000/svg" xmlns:xlink="http://www.w3.org/1999/xlink" viewBox="0 0 540.98 289.62"><defs><linearGradient id="名称未設定グラデーション_748" x1="264.05" y1="186.41" x2="264.05" y2="4.07" gradientUnits="userSpaceOnUse"><stop offset="0"/><stop offset="1" stop-color="#3800bf"/></linearGradient></defs><text transform="translate(5.5 208.98) scale(0.9 1)" style="font-size:227.2884521484375px;fill:#f15a24;font-family:Impact"><tspan style="letter-spacing:0.009999091419347848em">M</tspan><tspan x="165.19" y="0" style="letter-spacing:0.02299862636080605em">i</tspan><tspan x="232.68" y="0" style="letter-spacing:0.031999956927137085em">s</tspan><tspan x="346.94" y="0" style="letter-spacing:0.040001139652764695em">s</tspan><tspan x="463.02" y="0">...</tspan></text><path d="M134.85,4.07V183.75H98.09l0-121.3L83.41,183.75H57.34L41.91,65.22l0,118.53H5.1V4.07H59.51q2.43,16.2,5,38.2l6,45.7,9.66-83.9Z" transform="translate(8.79 25.23)" style="fill:url(#名称未設定グラデーション_748)"/><path d="M194.13,4.07V27.49H152.58V4.07Zm0,32.41V183.75H152.58V36.48Z" transform="translate(8.79 25.23)" style="fill:url(#名称未設定グラデーション_748)"/><path d="M295.72,83.53H260v-8q0-10.2-1-12.93t-5.24-2.72a5.78,5.78,0,0,0-5.1,2.5c-1.13,1.67-1.69,4.16-1.69,7.49a41.56,41.56,0,0,0,.85,9.93q.84,3.16,5.09,6.94t17.43,11q17.58,9.54,23.07,18t5.5,24.52q0,18-4.2,27.14a29.26,29.26,0,0,1-14,14.09q-9.84,4.93-23.73,4.94-15.37,0-26.32-5.33t-15-14.42q-4.09-9.1-4.09-27.53V132h35.76v9.32q0,11.88,1.34,15.43a5.21,5.21,0,0,0,5.35,3.55q4.29,0,6-2.38c1.13-1.6,1.7-4.94,1.7-10q0-10.54-2.2-13.2t-23.47-15.76q-17.77-11.1-21.68-20.15t-3.89-21.47q0-17.65,4.19-26t14.24-12.93q10-4.55,23.32-4.55t22.42,3.72q9.24,3.72,14.19,9.82t6,11.32q1.05,5.22,1.05,16.32Z" transform="translate(8.79 25.23)" style="fill:url(#名称未設定グラデーション_748)"/><path d="M398.55,83.53H362.79v-8q0-10.2-1-12.93t-5.25-2.72a5.76,5.76,0,0,0-5.09,2.5c-1.14,1.67-1.7,4.16-1.7,7.49a41.56,41.56,0,0,0,.85,9.93q.84,3.16,5.09,6.94t17.43,11q17.58,9.54,23.07,18t5.5,24.52q0,18-4.2,27.14a29.17,29.17,0,0,1-14,14.09q-9.84,4.93-23.72,4.94-15.39,0-26.32-5.33t-15-14.42q-4.1-9.1-4.1-27.53V132H350v9.32q0,11.88,1.35,15.43a5.2,5.2,0,0,0,5.34,3.55q4.29,0,6-2.38c1.14-1.6,1.7-4.94,1.7-10q0-10.54-2.2-13.2t-23.47-15.76q-17.78-11.1-21.67-20.15t-3.9-21.47q0-17.65,4.2-26t14.23-12.93q10-4.55,23.32-4.55t22.43,3.72q9.24,3.72,14.18,9.82t6,11.32q1,5.22,1.05,16.32Z" transform="translate(8.79 25.23)" style="fill:url(#名称未設定グラデーション_748)"/><path d="M447.49,147.12v36.63H417V147.12Z" transform="translate(8.79 25.23)" style="fill:url(#名称未設定グラデーション_748)"/><path d="M485.24,147.12v36.63H454.78V147.12Z" transform="translate(8.79 25.23)" style="fill:url(#名称未設定グラデーション_748)"/><path d="M523,147.12v36.63H492.53V147.12Z" transform="translate(8.79 25.23)" style="fill:url(#名称未設定グラデーション_748)"/><text transform="translate(5.5 208.98) scale(0.9 1)" style="font-size:227.2884521484375px;fill:none;stroke:#000;stroke-miterlimit:10;stroke-width:11px;font-family:Impact"><tspan style="letter-spacing:0.009999091419347848em">M</tspan><tspan x="165.19" y="0" style="letter-spacing:0.02299862636080605em">i</tspan><tspan x="232.68" y="0" style="letter-spacing:0.031999956927137085em">s</tspan><tspan x="346.94" y="0" style="letter-spacing:0.040001139652764695em">s</tspan><tspan x="463.02" y="0">...</tspan></text><text transform="translate(5.5 208.98) scale(0.9 1)" style="font-size:227.2884521484375px;fill:none;stroke:#fff;stroke-miterlimit:10;stroke-width:2px;font-family:Impact"><tspan style="letter-spacing:0.009999091419347848em">M</tspan><tspan x="165.19" y="0" style="letter-spacing:0.02299862636080605em">i</tspan><tspan x="232.68" y="0" style="letter-spacing:0.031999956927137085em">s</tspan><tspan x="346.94" y="0" style="letter-spacing:0.040001139652764695em">s</tspan><tspan x="463.02" y="0">...</tspan></text></svg>